<svg xmlns="http://www.w3.org/2000/svg" version="1.1" xmlns:xlink="http://www.w3.org/1999/xlink" xmlns:svgjs="http://svgjs.dev/svgjs" width="1000" height="1000" viewBox="0 0 1000 1000"><rect width="1000" height="1000" fill="#000000"></rect><g transform="matrix(0.7,0,0,0.7,150.61875432567274,146.08680161943317)"><svg viewBox="0 0 244 247" data-background-color="#ffffff" preserveAspectRatio="xMidYMid meet" height="1012" width="1000" xmlns="http://www.w3.org/2000/svg" xmlns:xlink="http://www.w3.org/1999/xlink"><g id="tight-bounds" transform="matrix(1,0,0,1,-0.21567992076549558,-0.09999999999999432)"><svg viewBox="0 0 244.43135999999998 247.2" height="247.2" width="244.43135999999998"><g><svg></svg></g><g><svg viewBox="0 0 244.43135999999998 247.2" height="247.2" width="244.43135999999998"><g transform="matrix(1,0,0,1,0,63.77995268524813)"><svg viewBox="0 0 244.43135999999998 119.64009462950372" height="119.64009462950372" width="244.43135999999998"><g><svg viewBox="0 0 244.43135999999998 119.64009462950372" height="119.64009462950372" width="244.43135999999998"><g><svg viewBox="0 0 244.43135999999998 119.64009462950372" height="119.64009462950372" width="244.43135999999998"><g><svg viewBox="0 0 244.43135999999998 119.64009462950372" height="119.64009462950372" width="244.43135999999998"><g id="textblocktransform"><svg viewBox="0 0 244.43135999999998 119.64009462950372" height="119.64009462950372" width="244.43135999999998" id="textblock"><g><svg viewBox="0 0 244.43135999999998 119.64009462950372" height="119.64009462950372" width="244.43135999999998"><g transform="matrix(1,0,0,1,0,0)"><svg width="244.43135999999998" viewBox="0.9500000476837158 -36 73.55000305175781 36" height="119.64009462950372" data-palette-color="#000000"><path d="M7.3-36L16.7-36 22.05-18.75 33.55-36 43-36 36.65 0 27.6 0 31.2-20.3 23.5-8.2 16.95-8.2 13.55-20.3 9.95 0 0.95 0 7.3-36ZM50.1-36L64.6-36Q70.3-36 72.7-33.5L72.7-33.5Q74.5-31.6 74.5-28.7L74.5-28.7Q74.5-27.7 74.3-26.6L74.3-26.6 73.85-24.2Q73.3-21.35 71.72-19.75 70.15-18.15 68.95-18.15L68.95-18.15 68.9-17.75Q70.3-17.75 71.75-16.2 73.2-14.65 73.2-12.55L73.2-12.55Q73.2-11.7 73-10.75L73-10.75 72.7-9.2Q71.9-4.9 68.87-2.45 65.85 0 60.45 0L60.45 0 43.75 0 50.1-36ZM60.1-14.7L60.1-14.7 55.35-14.7 54.15-7.8 58.9-7.8Q59-7.8 59.1-7.8L59.1-7.8Q61.4-7.8 62.75-8.88 64.1-9.95 64.1-11.5L64.1-11.5Q64.1-14.7 60.1-14.7ZM61.45-28.2L61.45-28.2 57.7-28.2 56.4-20.75 60.1-20.75Q64.9-20.75 64.9-24.95L64.9-24.95Q64.9-26.4 64.02-27.3 63.15-28.2 61.45-28.2Z" opacity="1" transform="matrix(1,0,0,1,0,0)" fill="#ffffff" class="wordmark-text-0" data-fill-palette-color="primary" id="text-0"></path></svg></g></svg></g></svg></g></svg></g><g></g></svg></g></svg></g></svg></g><path d="M0 57.78L0 1 244.431 1 244.431 57.78 233.642 57.78 233.642 11.789 10.789 11.789 10.789 57.78 0 57.78M0 189.42L0 246.2 244.431 246.2 244.431 189.42 233.642 189.42 233.642 235.411 10.789 235.411 10.789 189.42 0 189.42" fill="#ffffff" stroke="transparent" data-fill-palette-color="primary"></path></svg></g><defs></defs></svg><rect width="244.43135999999998" height="247.2" fill="none" stroke="none" visibility="hidden"></rect></g></svg></g></svg>